HIERARCHY
ROOT Hips
{
	OFFSET 0.000000 0.000000 0.000000 
	CHANNELS 6 Xposition Yposition Zposition Yrotation Zrotation Xrotation 
	JOINT Lumbar
	{
		OFFSET 0.000000 0.000000 0.000000 
		CHANNELS 3 Zrotation Xrotation Yrotation
		JOINT Neck
		{
			OFFSET 0.000000 0.445665 0.000000 
			CHANNELS 3 Zrotation Xrotation Yrotation
			End Site
			{
				OFFSET 0.000000 0.227535 0.000000 
			}
		}
		JOINT RightShoulder
		{
			OFFSET 0.019635 0.377685 0.194865 
			CHANNELS 3 Zrotation Xrotation Yrotation
			JOINT RightElbow
			{
				OFFSET 0.000000 -0.243375 0.000000 
				CHANNELS 2 Zrotation Yrotation
				JOINT RightWrist
				{
					OFFSET 0.000000 -0.264825 0.000000 
					CHANNELS 2 Zrotation Xrotation
					End Site
					{
						OFFSET 0.006600 -0.176220 0.000990 
					}
				}
			}
		}
		JOINT LeftShoulder
		{
			OFFSET 0.019635 0.377685 -0.194865 
			CHANNELS 3 Zrotation Xrotation Yrotation
			JOINT LeftElbow
			{
				OFFSET 0.000000 -0.243375 0.000000 
				CHANNELS 2 Zrotation Yrotation
				JOINT LeftWrist
				{
					OFFSET 0.000000 -0.264825 0.000000 
					CHANNELS 2 Zrotation Xrotation
					End Site
					{
						OFFSET 0.006600 -0.176220 -0.000990 
					}
				}
			}
		}
	}
	JOINT RightHip
	{
		OFFSET 0.052140 -0.069960 0.075570 
		CHANNELS 3 Zrotation Xrotation Yrotation
		JOINT RightKnee
		{
			OFFSET 0.000000 -0.402270 0.000000 
			CHANNELS 1 Zrotation
			JOINT RightAnkle
			{
				OFFSET 0.000000 -0.404085 0.000000 
				CHANNELS 3 Zrotation Xrotation Yrotation
				End Site
				{
					OFFSET 0.204105 -0.089430 0.008415 
				}
			}
		}
	}
	JOINT LeftHip
	{
		OFFSET 0.052140 -0.069960 -0.075570 
		CHANNELS 3 Zrotation Xrotation Yrotation
		JOINT LeftKnee
		{
			OFFSET 0.000000 -0.402270 0.000000 
			CHANNELS 1 Zrotation
			JOINT LeftAnkle
			{
				OFFSET 0.000000 -0.404085 0.000000 
				CHANNELS 3 Zrotation Xrotation Yrotation
				End Site
				{
					OFFSET 0.204105 -0.089430 -0.008415 
				}
			}
		}
	}
}
MOTION
Frames: 23
Frame Time: 0.02
0 0.95579 -1e-05 -425.01421 0 2.73966 5.24338 -2.77833 0.89476 -8.78164 4.60873 -0.1266 0.03646 -15.05453 -4.03187 9.99918 84.67977 2.38068 1.37993 10.19186 15.54901 -23.76681 11.79584 -101.90209 -19.62505 6.57382 5.74714 1.78575 8.64201 -23.97441 14.22417 -12.29557 -14.0929 4.17341 -5.63558 -9.07667 -16.48459 8.20687 6.73526 11.4094
-0.00205 0.95586 0.00275 -424.79657 0 2.63356 4.89085 -2.81132 0.41618 -6.90174 5.24224 -0.13002 -1.74157 -15.76194 -3.15766 10.18184 84.80875 2.32395 1.41459 8.98157 15.7783 -20.74962 11.55233 -101.73662 -19.87172 6.6169 5.43332 2.00322 8.32362 -23.55454 14.16226 -12.20797 -14.04092 4.21064 -5.40832 -9.38344 -16.71158 8.27881 6.78987 11.4924
-0.0041 0.95593 0.00552 -424.58193 0 2.52684 4.54207 -2.84249 -0.05866 -5.04355 5.87251 -0.13206 -3.49663 -16.46658 -2.29071 10.36289 84.93759 2.26775 1.44953 7.78639 16.00437 -17.72849 11.30806 -101.56184 -20.11028 6.6583 5.12127 2.2213 8.00709 -23.1386 14.10025 -12.12035 -13.98889 4.25136 -5.18176 -9.68773 -16.94731 8.35225 6.8456 11.57635
-0.0061 0.95599 0.00832 -424.38031 0 2.42131 4.20756 -2.87181 -0.52298 -3.25739 6.49871 -0.12683 -5.17697 -17.17016 -1.43859 10.539 85.06879 2.21394 1.48604 6.64216 16.21555 -14.64804 11.05734 -101.35267 -20.31251 6.69453 4.81496 2.43936 7.69924 -22.73724 14.03761 -12.03241 -13.93736 4.29302 -4.95823 -9.98473 -17.19544 8.43308 6.90674 11.66484
-0.00829 0.95615 0.01092 -424.11357 0 2.31515 3.80075 -2.91705 -1.04276 -1.09403 7.14972 -0.15799 -7.25279 -17.88305 -0.50121 10.74094 85.18949 2.14846 1.51436 5.23093 16.5005 -11.86485 10.83959 -101.33097 -20.69966 6.7595 4.48033 2.65201 7.35065 -22.26218 13.97873 -11.94689 -13.88466 4.31354 -4.72156 -10.31997 -17.34807 8.47571 6.93979 11.72924
-0.0101 0.95607 0.01395 -423.98221 0 2.20658 3.54501 -2.92442 -1.44493 0.27238 7.74538 -0.11359 -8.49033 -18.57301 0.25036 10.88826 85.33092 2.10703 1.55986 4.38384 16.63259 -8.46726 10.55314 -100.9092 -20.70043 6.76271 4.20454 2.87964 7.08503 -21.94106 13.91167 -11.85584 -13.83347 4.38975 -4.51097 -10.57425 -17.72276 8.59842 7.03183 11.84456
-0.01081 0.95536 0.01827 -424.25654 0 2.12088 3.73335 -2.8588 -1.51939 -0.62925 8.21889 0.16078 -7.36158 -19.23979 0.53086 10.88175 85.54702 2.13952 1.65713 5.1442 16.30035 -3.11683 10.05476 -99.36176 -19.5505 6.59688 4.10101 3.12433 7.07905 -22.07195 13.82201 -11.7506 -13.79346 4.53588 -4.38619 -10.60021 -18.5733 8.95716 7.29721 12.1084
-0.01115 0.95441 0.02302 -424.66163 0 2.02757 4.06909 -2.74926 -1.47555 -2.32293 8.63204 0.50791 -5.39622 -19.87788 0.61752 10.82089 85.78098 2.19502 1.77119 6.46496 15.82029 2.81298 9.49047 -97.41385 -18.02409 6.36829 4.0548 3.38842 7.15092 -22.3532 13.72408 -11.63948 -13.75345 4.75444 -4.28549 -10.5444 -19.6737 9.3927 7.61961 12.42228
-0.01169 0.95354 0.02752 -424.98704 0 1.91795 4.32065 -2.63891 -1.48808 -3.61326 9.05256 0.80812 -3.84355 -20.50243 0.76432 10.78649 85.99583 2.23507 1.87467 7.49921 15.43603 8.31756 8.97024 -95.65905 -16.72353 6.16712 3.97615 3.66038 7.16774 -22.54869 13.62967 -11.53019 -13.70905 4.99389 -4.16409 -10.53035 -20.75103 9.78607 7.91066 12.7087
-0.01209 0.95277 0.03224 -425.39947 0 1.89033 4.64632 -2.61539 -1.4904 -5.09152 9.55496 1.16638 -2.14765 -21.23458 1.0242 10.74357 86.25744 2.29594 1.98997 8.6713 14.93469 14.50381 8.39084 -93.85216 -15.19408 5.9704 3.92529 3.86381 7.2689 -22.8188 13.53586 -11.4244 -13.68394 5.00372 -4.0821 -10.50077 -21.44862 10.21713 8.22839 13.01582
-0.01268 0.95175 0.03659 -425.65978 0 1.69195 4.8507 -2.40166 -1.48486 -6.36047 9.87588 1.4215 -0.5591 -21.74142 1.00857 10.70686 86.42541 2.31924 2.08542 9.68498 14.63748 19.4092 7.91862 -92.06539 -14.04932 5.74977 3.82919 4.21214 7.21127 -22.96787 13.43937 -11.31002 -13.61768 5.51214 -3.926 -10.47924 -22.99365 10.57908 8.49938 13.29071
-0.01398 0.95004 0.03983 -425.48509 0 1.00934 4.7012 -1.66539 -1.49478 -6.90965 9.68077 1.36965 0.59553 -21.58417 0.22844 10.68864 86.33528 2.23025 2.11571 10.16185 14.9802 20.62777 7.76175 -90.37262 -14.08109 5.47668 3.60242 4.97614 6.71123 -22.75818 13.3328 -11.17301 -13.44741 7.35058 -3.54065 -10.54147 -26.83538 10.80994 8.66933 13.47253
-0.01547 0.9481 0.04266 -425.15009 0 0.15875 4.42166 -0.74162 -1.49894 -7.21159 9.31001 1.21208 1.60128 -21.20957 -0.81228 10.68051 86.14976 2.10317 2.12678 10.45284 15.52646 20.53947 7.71438 -88.72422 -14.50877 5.18242 3.32675 5.8808 6.04687 -22.41993 13.22473 -11.02798 -13.23479 9.69174 -3.08387 -10.60675 -31.51286 10.95589 8.78344 13.61828
-0.01682 0.94629 0.04566 -424.87668 0 -0.60648 4.19004 0.09216 -1.50085 -7.59206 9.04 1.10609 2.63039 -20.96751 -1.70068 10.67599 86.00429 1.99547 2.15057 10.80436 15.95259 21.05445 7.61474 -87.09554 -14.74075 4.89854 3.06783 6.70871 5.44662 -22.13158 13.12034 -10.88645 -13.03421 11.82431 -2.67139 -10.64358 -35.80263 11.08673 8.89433 13.77572
-0.01839 0.94437 0.04874 -424.6534 0 -1.41364 4.00947 0.95132 -1.5208 -8.14117 8.68223 0.98867 3.87335 -20.5849 -2.7407 10.63617 85.87191 1.87995 2.15746 11.27692 16.48812 21.54817 7.52344 -85.28775 -15.02649 4.60766 2.8334 7.59444 4.88971 -21.88147 13.00281 -10.74396 -12.8606 13.88364 -2.2077 -10.79235 -40.15566 11.4389 9.12388 13.95638
-0.01952 0.94264 0.05157 -424.28841 0 -2.16875 3.6914 1.79699 -1.50132 -8.2723 8.46291 0.86778 4.62761 -20.44001 -3.52207 10.6715 85.69123 1.7712 2.1956 11.44545 16.84868 21.77067 7.44157 -83.8647 -15.2988 4.32918 2.53639 8.38913 4.20749 -21.52297 12.91266 -10.60334 -12.62507 16.20375 -1.836 -10.70908 -44.54553 11.31899 9.09739 14.07744
-0.01948 0.94145 0.05364 -423.54961 0 -2.77755 3.01108 2.59822 -1.39264 -7.28666 8.69836 0.77419 4.03932 -21.03702 -3.54296 10.92537 85.38461 1.69235 2.31703 10.8214 16.65445 21.54039 7.35982 -83.53215 -15.44244 4.07263 2.07085 8.92986 3.17617 -20.86348 12.89639 -10.45528 -12.19141 19.20569 -1.71319 -9.99095 -49.05447 9.82891 8.3329 14.06006
-0.01896 0.94047 0.0555 -422.67737 0 -3.32092 2.19911 3.37183 -1.242 -5.89003 9.07389 0.67887 2.96596 -21.87455 -3.29021 11.25265 85.03565 1.62146 2.47149 9.89504 16.28194 21.0839 7.28399 -83.58114 -15.55991 3.83269 1.54481 9.36795 2.03213 -20.10456 12.90827 -10.31216 -11.70354 22.43473 -1.6893 -9.03895 -53.52552 7.88242 7.32056 13.98079
-0.01859 0.93943 0.05753 -421.87948 0 -3.86899 1.45569 4.13262 -1.09871 -4.69167 9.36637 0.57605 2.12938 -22.58134 -3.15036 11.53727 84.71633 1.54524 2.61634 9.10283 16.0061 20.74335 7.2052 -83.4305 -15.68769 3.59714 1.05172 9.83219 0.96765 -19.41246 12.90855 -10.17635 -11.26554 25.50617 -1.63508 -8.1893 -57.87155 6.20203 6.45088 13.91783
-0.01852 0.93822 0.05923 -421.01716 0 -4.52871 0.66975 5.00758 -1.00313 -3.43336 9.73492 0.50237 1.21787 -23.37236 -3.06843 11.85996 84.34943 1.47376 2.73953 8.31673 15.67114 20.30155 7.13124 -83.38732 -15.83532 3.31115 0.53546 10.38834 -0.22227 -18.6256 12.9033 -9.99983 -10.72096 28.83226 -1.51752 -7.35388 -62.86153 4.27172 5.45314 13.90216
-0.01768 0.93742 0.06159 -420.26074 0 -4.93805 -0.05561 5.63514 -0.80019 -2.20958 9.98011 0.37172 0.35072 -24.0462 -2.79704 12.12256 84.07327 1.39624 2.91369 7.45028 15.41442 20.03456 7.0473 -83.21616 -15.93076 3.13354 0.05178 10.72625 -1.17539 -18.01295 12.91684 -9.90949 -10.38423 31.666 -1.5552 -6.43633 -66.47261 2.75371 4.66321 13.77545
-0.01495 0.93773 0.06572 -419.81858 0 -4.67227 -0.59443 5.5903 -0.29511 -1.14691 9.85556 0.06057 -0.28928 -24.35314 -2.07251 12.18447 84.05422 1.28749 3.23944 6.42027 15.41549 20.30775 6.93316 -82.55055 -15.88283 3.25906 -0.3104 10.49117 -1.44757 -17.91693 12.97035 -10.05498 -10.65088 33.16003 -2.00703 -5.32186 -66.43065 2.49449 4.51456 13.34214
-0.01143 0.93843 0.07057 -419.49024 0 -4.15623 -1.06441 5.29596 0.3134 -0.14131 9.60207 -0.30318 -0.86404 -24.53197 -1.16571 12.186 84.12886 1.17465 3.61171 5.32381 15.50052 20.77261 6.80854 -81.75253 -15.78231 3.49164 -0.64064 10.03873 -1.47669 -17.99858 13.04272 -10.28723 -11.12575 34.13309 -2.61007 -4.13733 -64.97067 2.66463 4.58247 12.80181
